/vscmnt/brussel_pixiu_data/_data_brussel/112/vsc11236/PredSimResults/SUBJ07_Falisse2022/weightedWalking/worker_03.mot
version=1
nRows=4
nColumns=124
inDegrees=yes
endheader
                time	         pelvis_tilt	         pelvis_list	     pelvis_rotation	           pelvis_tx	           pelvis_ty	           pelvis_tz	       hip_flexion_r	     hip_adduction_r	      hip_rotation_r	        knee_angle_r	       ankle_angle_r	    subtalar_angle_r	         mtp_angle_r	       hip_flexion_l	     hip_adduction_l	      hip_rotation_l	        knee_angle_l	       ankle_angle_l	    subtalar_angle_l	         mtp_angle_l	    lumbar_extension	      lumbar_bending	     lumbar_rotation	          arm_flex_r	           arm_add_r	           arm_rot_r	        elbow_flex_r	          arm_flex_l	           arm_add_l	           arm_rot_l	        elbow_flex_l	glut_med1_r/activation	glut_med2_r/activation	glut_med3_r/activation	glut_min1_r/activation	glut_min2_r/activation	glut_min3_r/activation	semimem_r/activation	semiten_r/activation	bifemlh_r/activation	bifemsh_r/activation	    sar_r/activation	add_long_r/activation	add_brev_r/activation	add_mag1_r/activation	add_mag2_r/activation	add_mag3_r/activation	    tfl_r/activation	   pect_r/activation	   grac_r/activation	glut_max1_r/activation	glut_max2_r/activation	glut_max3_r/activation	iliacus_r/activation	  psoas_r/activation	quad_fem_r/activation	    gem_r/activation	   peri_r/activation	rect_fem_r/activation	vas_med_r/activation	vas_int_r/activation	vas_lat_r/activation	med_gas_r/activation	lat_gas_r/activation	 soleus_r/activation	tib_post_r/activation	flex_dig_r/activation	flex_hal_r/activation	tib_ant_r/activation	per_brev_r/activation	per_long_r/activation	per_tert_r/activation	ext_dig_r/activation	ext_hal_r/activation	glut_med1_l/activation	glut_med2_l/activation	glut_med3_l/activation	glut_min1_l/activation	glut_min2_l/activation	glut_min3_l/activation	semimem_l/activation	semiten_l/activation	bifemlh_l/activation	bifemsh_l/activation	    sar_l/activation	add_long_l/activation	add_brev_l/activation	add_mag1_l/activation	add_mag2_l/activation	add_mag3_l/activation	    tfl_l/activation	   pect_l/activation	   grac_l/activation	glut_max1_l/activation	glut_max2_l/activation	glut_max3_l/activation	iliacus_l/activation	  psoas_l/activation	quad_fem_l/activation	    gem_l/activation	   peri_l/activation	rect_fem_l/activation	vas_med_l/activation	vas_int_l/activation	vas_lat_l/activation	med_gas_l/activation	lat_gas_l/activation	 soleus_l/activation	tib_post_l/activation	flex_dig_l/activation	flex_hal_l/activation	tib_ant_l/activation	per_brev_l/activation	per_long_l/activation	per_tert_l/activation	ext_dig_l/activation	ext_hal_l/activation	 ercspn_r/activation	 ercspn_l/activation	 intobl_r/activation	 intobl_l/activation	 extobl_r/activation	 extobl_l/activation	
          1.70489682	        -10.01625739	          2.22586282	         -3.96908467	          2.11407206	          0.84011821	          0.00581960	        -11.63392063	          0.13516375	          9.53096293	         -7.41378544	          2.66106707	         -1.65992853	         33.08320917	         37.10930292	          2.75400119	          0.45114365	         -9.56266148	         14.56309242	         -6.82233461	          0.23656495	         -1.74589949	         -0.55510210	          2.02300220	         27.39678467	        -13.47139275	         19.37720452	         74.91345583	        -21.11993781	        -13.90587724	         15.45365523	         16.93558435	          0.07758441	          0.06624621	          0.07034557	          0.11427117	          0.10203385	          0.09800317	          0.01192965	          0.01026238	          0.01189381	          0.03144362	          0.06594192	          0.09891743	          0.02837991	          0.10171945	          0.02905723	          0.01000738	          0.19296471	          0.02758082	          0.02001475	          0.02000631	          0.01686380	          0.01941513	          0.24462879	          0.38623706	          0.02337402	          0.02289853	          0.10705164	          0.13288449	          0.01189353	          0.01189370	          0.01189422	          0.22204339	          0.30139688	          0.30677135	          0.30948928	          0.39859909	          0.40572178	          0.01000006	          0.01000005	          0.01000003	          0.01000009	          0.01000003	          0.01000027	          0.01624613	          0.01000016	          0.01000045	          0.01000143	          0.01000035	          0.01000100	          0.15990058	          0.04087936	          0.04366817	          0.01001389	          0.01588711	          0.03682908	          0.19311361	          0.22421351	          0.14571459	          0.07366949	          0.01000036	          0.01692197	          0.09543904	          0.04200881	          0.03633551	          0.05921806	          0.01924300	          0.01846010	          0.22186322	          0.01807611	          0.02094382	          0.01414848	          0.09888327	          0.09703355	          0.07990918	          0.01000002	          0.01000007	          0.01000005	          0.02001537	          0.01682729	          0.01682775	          0.32543265	          0.25031077	          0.18543355	          0.10667332	          0.39657284	          0.18974302	          0.02260854	          0.04550000	          0.01682749	          0.01389301	          0.01000020	          0.07571197	
          1.71626280	         -9.99911971	          2.49809219	         -4.28090782	          2.13124608	          0.83836774	          0.00557547	        -11.40427824	         -0.15514641	          9.09694749	         -9.91453547	          2.37626484	         -1.06982996	         34.20087317	         36.45075148	          3.11330245	          0.70555420	        -10.33977617	         13.77115852	         -7.20846957	          0.22024553	         -1.62257217	         -1.05669420	          2.06363135	         27.10188834	        -13.49354037	         19.33272802	         77.22211813	        -22.39662908	        -13.90572849	         15.58390080	         16.87015537	          0.15472214	          0.05569563	          0.05914211	          0.09607226	          0.08578367	          0.08239489	          0.01003003	          0.01000033	          0.01000069	          0.02643582	          0.05543984	          0.09503692	          0.09950365	          0.08551958	          0.02443082	          0.01000080	          0.16223257	          0.02755380	          0.01682734	          0.01682035	          0.01417822	          0.01632314	          0.20566842	          0.32472370	          0.01965141	          0.01925170	          0.09000226	          0.11172088	          0.01000019	          0.01000020	          0.01000019	          0.18668004	          0.25339545	          0.28786709	          0.26479250	          0.33511955	          0.34155514	          0.01000006	          0.01000009	          0.01000006	          0.01000012	          0.01000004	          0.01000028	          0.15179349	          0.01000013	          0.01000008	          0.01000124	          0.01000038	          0.22186476	          0.13443430	          0.03436891	          0.05673456	          0.03022572	          0.01344296	          0.03096364	          0.16235775	          0.18850458	          0.12250768	          0.06319021	          0.01000126	          0.01422732	          0.08023960	          0.15632021	          0.09607665	          0.04978707	          0.01617832	          0.01552011	          0.24814468	          0.01519791	          0.19706782	          0.01189516	          0.08313482	          0.08157969	          0.06718260	          0.01682748	          0.01682738	          0.01583298	          0.01682766	          0.01414737	          0.01414774	          0.37020816	          0.26734602	          0.15590087	          0.22133520	          0.50109102	          0.15952404	          0.04349495	          0.04078478	          0.01414749	          0.01168043	          0.01000002	          0.06365384	
          1.72762878	         -9.98020368	          2.76050262	         -4.57027416	          2.14842915	          0.83667030	          0.00529114	        -11.01885872	         -0.43700384	          8.65889127	        -12.67387708	          2.02311616	         -0.48481647	         34.98102408	         35.70636114	          3.44895732	          0.96969817	        -11.00464575	         13.01933829	         -7.59308465	          0.22047939	         -1.50548634	         -1.55138007	          2.09499754	         26.70305975	        -13.51744625	         19.26481044	         79.36191598	        -23.49917594	        -13.88751086	         15.92263182	         16.66535140	          0.13497533	          0.04682537	          0.04972295	          0.17778350	          0.07212155	          0.06927243	          0.03825947	          0.01169803	          0.01012425	          0.02222557	          0.04661034	          0.07990154	          0.14137652	          0.07189980	          0.02993995	          0.04027922	          0.13639499	          0.02316615	          0.01414749	          0.01414172	          0.01192030	          0.01372359	          0.17291301	          0.27300716	          0.01652168	          0.01618566	          0.07566822	          0.09392787	          0.01800277	          0.01914921	          0.01833775	          0.15694877	          0.21303887	          0.26301626	          0.24848679	          0.28178118	          0.30580688	          0.01000011	          0.01000016	          0.01000013	          0.01000029	          0.01000010	          0.01000058	          0.21507939	          0.24439800	          0.30189688	          0.04907115	          0.18061664	          0.18653045	          0.11302386	          0.07121796	          0.04771980	          0.03368048	          0.01130228	          0.02603231	          0.13650016	          0.15848283	          0.10299698	          0.07923553	          0.01000033	          0.01196199	          0.09320876	          0.20686650	          0.13912226	          0.07998916	          0.01360172	          0.01304834	          0.21082593	          0.02226158	          0.16568258	          0.01000071	          0.06989453	          0.06858707	          0.05648291	          0.01414748	          0.01414740	          0.01331137	          0.01414764	          0.01189424	          0.01189455	          0.48533151	          0.33595816	          0.17924785	          0.49239627	          0.54640390	          0.33237904	          0.06289558	          0.08065259	          0.01189432	          0.01637706	          0.01000001	          0.05351612	
          1.73899476	         -9.96145474	          3.00831035	         -4.83612506	          2.16540299	          0.83525573	          0.00495531	        -10.45238070	         -0.71004715	          8.22351876	        -15.68557257	          1.58279754	          0.10105858	         35.24923858	         34.98037086	          3.79094578	          1.23275498	        -11.65079033	         12.16766207	         -7.96910681	          0.21382134	         -1.40759841	         -2.03501774	          2.11881627	         26.23317510	        -13.53430760	         19.18896447	         81.23871741	        -24.37229142	        -13.84406063	         16.42199610	         16.31153692	          0.11347884	          0.03936782	          0.04180391	          0.16456090	          0.06063529	          0.05823990	          0.03220755	          0.01129140	          0.01000153	          0.01868587	          0.03918706	          0.06717884	          0.18975876	          0.06044921	          0.02751804	          0.03386500	          0.11467239	          0.01947739	          0.01189444	          0.01188976	          0.01002202	          0.01153807	          0.14537433	          0.22952717	          0.01389039	          0.01360794	          0.06361706	          0.07896864	          0.02831636	          0.02831635	          0.02831634	          0.13195260	          0.17910961	          0.22446993	          0.22291337	          0.23690416	          0.25710357	          0.01000004	          0.01199780	          0.02668651	          0.01000027	          0.01000007	          0.01000026	          0.28580877	          0.33596391	          0.38783283	          0.10351702	          0.15187209	          0.22083586	          0.09502332	          0.06608761	          0.04662175	          0.02831645	          0.01000019	          0.02188638	          0.11476076	          0.13324302	          0.12423727	          0.10262045	          0.01000024	          0.01005758	          0.07893677	          0.25278833	          0.17455700	          0.11610003	          0.01143548	          0.01097024	          0.22342900	          0.01871670	          0.13929599	          0.01000006	          0.11686498	          0.11711154	          0.10473559	          0.01189431	          0.01189426	          0.01119136	          0.01189445	          0.01000017	          0.01000029	          0.55243600	          0.32980371	          0.17059011	          0.53332931	          0.58097506	          0.35835691	          0.09356583	          0.09591212	          0.01000001	          0.01376888	          0.01000001	          0.04499297	
